<svg width="64" height="48" viewBox="0 0 64 48" fill="none" xmlns="http://www.w3.org/2000/svg">
<g clip-path="url(#clip0_3047_289)">
<path d="M9.30769 33.1321H6.25193L1.88164 45.6899H0.552734V47.6897H6.00627V45.6899H4.56818L5.24771 43.6915H10.355L10.9713 45.6899H9.53325V47.6897H15.0083V45.6899H13.678L9.30769 33.1321ZM5.7606 41.6859L7.48315 36.741C7.68859 36.0226 7.74893 35.4695 7.74893 35.4695H7.8107C7.8107 35.4695 7.85237 36.0226 8.07648 36.741L9.78466 41.6859H5.75916H5.7606Z" fill="#44499C"/>
<path d="M25.4542 45.312V37.2337H21.2506V39.1818H22.8496V41.8885C22.8496 43.7748 21.7635 45.6209 19.959 45.6209C18.6459 45.6209 18.3184 44.7603 18.3184 43.509V37.2352H14.0946V39.1833H15.7152V43.9601C15.7152 46.8104 17.0484 47.9382 19.1387 47.9382C21.6557 47.9382 22.7404 46.1467 22.9329 45.6927H22.9904C22.9846 45.7732 22.9746 45.9441 22.9746 46.1352V46.5246C22.9746 47.263 23.4056 47.694 24.3279 47.694H26.911V45.6942H25.9068C25.5562 45.6942 25.4557 45.6022 25.4557 45.3163L25.4542 45.312Z" fill="#44499C"/>
<path d="M48.1318 33.1321H45.507V35.4494H48.1318V33.1321Z" fill="#44499C"/>
<path d="M61.9725 45.6899V40.9647C61.9725 38.1963 60.7011 36.9866 58.4656 36.9866C55.8409 36.9866 54.7332 38.9965 54.6111 39.3241H54.5694C54.5694 39.3241 54.6111 39.0985 54.6111 38.8729V38.4017C54.6111 37.6633 54.1801 37.2323 53.2578 37.2323H50.5095V39.1804H51.6789C51.9662 39.1804 52.13 39.3442 52.13 39.6315V45.6899H50.6129V47.6897H56.2316V45.6899H54.7346V42.9947C54.7346 41.1701 55.8423 39.3657 57.7286 39.3657C59.0417 39.3657 59.3894 40.2263 59.3894 41.4977V47.6897H63.491V45.6899H61.9725Z" fill="#44499C"/>
<path d="M48.1318 37.2323H43.908V39.1804H45.5286V45.6899H44.0115V47.6897H49.6288V45.6899H48.1318V37.2323Z" fill="#44499C"/>
<path d="M40.4644 43.5895V39.1804H42.8435V37.2323H40.4644V34.382H37.9416V37.2323H36.2607V39.1804H37.8597V43.8553C37.8597 47.3621 40.7503 47.7917 42.2272 47.7917C42.6984 47.7917 43.0274 47.7299 43.0274 47.7299V45.6884H42.5561C41.8177 45.6884 40.4644 45.3709 40.4644 43.588V43.5895Z" fill="#44499C"/>
<path d="M32.5312 41.5394C31.3617 41.1903 30.3374 40.8426 30.3374 39.9806C30.3374 39.3241 31.0342 39.0367 31.8545 39.0367C32.7769 39.0367 33.3917 39.3643 33.3917 39.8973V40.4921H35.6272V39.1588C35.6272 37.58 33.3716 36.9852 31.8545 36.9852C29.9481 36.9852 27.7328 37.7638 27.7328 39.9792C27.7328 41.9675 29.4955 42.6858 31.0342 43.2188C32.4277 43.7317 33.4133 43.9573 33.4133 44.8379C33.4133 45.5347 32.6749 45.9039 31.629 45.9039C30.5831 45.9039 29.5789 45.5347 29.5789 44.8178V44.2029H27.365V45.4126C27.365 47.1136 29.7024 47.9339 31.6089 47.9339C34.0081 47.9339 36.0179 46.8679 36.0179 44.756C36.0179 42.6442 34.1316 42.0494 32.5326 41.5365L32.5312 41.5394Z" fill="#44499C"/>
<path d="M42.0578 10.0034C40.6456 4.74957 39.3382 0 34.9996 0C30.6609 0 29.3535 4.74957 27.9413 10.0034C27.052 13.312 26.0435 17.0617 24.1859 19.8287C22.1645 22.8399 19.4693 24.2464 15.701 24.2478C15.6967 24.2478 15.6924 24.2521 15.6924 24.2564V27.203C15.6924 27.203 15.6967 27.2116 15.7024 27.2116C21.3787 27.2088 24.7447 24.515 26.9629 20.9694C28.6021 18.3489 29.6983 15.0044 30.8045 10.7735C32.0702 5.9305 33.0687 2.96381 34.9996 2.96381C36.9304 2.96381 37.9289 5.9305 39.1946 10.7735C40.2994 15.0015 42.598 21.2969 48.1018 21.3041C48.1076 21.3041 48.1119 21.2998 48.1119 21.2941V18.3475C48.1119 18.3475 48.1076 18.3389 48.1033 18.3389C44.7228 18.3303 42.9486 13.3077 42.0593 10.002L42.0578 10.0034Z" fill="#44499C"/>
<path d="M24.2965 10.8108C26.3552 2.77561 27.8192 0.897908 28.5576 0.255724C28.6553 0.170961 28.5892 0.011493 28.4599 0.0186762C23.4058 0.333303 22.6688 5.54835 21.4376 10.0235C20.2523 14.3364 19.2553 17.4496 17.1391 18.1708C17.0213 18.211 16.4825 18.3374 15.701 18.3374C15.6967 18.3374 15.6924 18.3417 15.6924 18.3461V21.2926C15.6924 21.2926 15.6967 21.3012 15.701 21.3012C16.4466 21.3012 17.777 21.2452 18.9263 20.6591C22.3297 18.9193 23.594 13.5548 24.2965 10.8079V10.8108Z" fill="#009F4D"/>
<path d="M39.265 19.0529C37.5166 16.1623 36.0713 10.6844 35.1303 7.51944C35.0929 7.39445 34.9162 7.39158 34.8746 7.51513C34.3861 8.92449 33.7396 11.3352 33.5414 12.0866C33.5011 12.236 33.504 12.3926 33.5485 12.542C34.1045 14.3996 34.7855 16.4669 35.6216 18.3417H31.6708C31.6162 18.3417 31.5674 18.3734 31.5458 18.4251C31.237 19.2095 30.7514 20.3186 30.3606 21.113C30.3175 21.2021 30.3822 21.3056 30.4813 21.3056H37.2206C39.4201 24.6889 42.8897 27.2116 48.099 27.2145C48.1047 27.2145 48.109 27.2102 48.109 27.2059V24.2593C48.109 24.2593 48.1047 24.2507 48.1004 24.2507C43.8335 24.2478 41.0364 22.1144 39.2635 19.0558L39.265 19.0529Z" fill="#009F4D"/>
</g>
<defs>
<clipPath id="clip0_3047_289">
<rect width="62.9369" height="48" fill="white" transform="translate(0.53125)"/>
</clipPath>
</defs>
</svg>
