<?xml version="1.0" encoding="UTF-8"?>
<svg id="Layer_1" data-name="Layer 1" xmlns="http://www.w3.org/2000/svg" viewBox="0 0 801.05 283.13">
  <defs>
    <style>
      .cls-1 { fill: #005923; }
      .cls-2 { font-family: Arial-ItalicMT, Arial; font-size: 66px; font-style: italic; letter-spacing: .04em; }
    </style>
  </defs>
  <g>
    <g>
      <path class="cls-1" d="M175.07,6.14c-3.83,2.53-7.33,5.34-10.44,8.42l-.55.56c-.15.15-.31.3-.48.48l-.81.81-.13.28c-3.27,3.83-9.04,12.07-15.35,27.9l-.59,1.47v.03c-7.3,18.75-13.3,42.57-17.82,70.83-.25,1.35-2.16,11.69-3.25,23.9-1.64,18.24-.59,30.87,3.16,38.62.93,2.1,4.43,8.75,14.12,15h-53.29l15.31-72.68h-21.49l-15.3,72.68H12L51.64,6.14h56.16l-13.91,66.07h21.47l13.91-66.07h45.79Z"/>
      <path class="cls-1" d="M279.44,68.75l-1.93,9.13h-54.69l3.62-18.09.45-2.25h.02l.76-3.78c.08-.45.17-.88.25-1.29l.05-.25.35-1.75c.07-.33.12-.68.15-1.01.45-4.86-2.86-9.38-7.73-10.37-.63-.12-1.26-.18-1.88-.18-2.56,0-4.96,1.02-6.74,2.76-.18.15-.35.35-.51.53-.83.93-1.47,2.03-1.88,3.25-.15.4-.26.81-.35,1.22l-.08.43-.05.18c-.48,1.87-.94,3.95-1.42,6.24-.1.58-.23,1.19-.35,1.8l-8.41,42.75-8.9,44.5-1.32,6.57c-.2.96-.23,1.92-.15,2.86.41,4.11,3.47,7.68,7.71,8.52.63.13,1.27.18,1.88.18,4.51,0,8.82-3.11,9.75-7.7l.99-4.91c.45-1.9.88-3.98,1.32-6.24l2.49-14.16,2.79-13.94h54.39l-1.7,11.6c-3.87,19.69-8.16,33.66-12.85,41.89-4.69,8.24-12.92,15.46-24.66,21.66-11.74,6.19-25.34,9.3-40.77,9.3-20.47-.55-33.42-5.1-41.43-9.94-.05-.03-.1-.07-.15-.1-.97-.59-1.87-1.17-2.69-1.77-7.45-5.3-9.45-10.39-9.45-10.39-7.5-15.01.73-57.66.73-57.66,5.3-33.18,11.96-55.7,17.94-70.68v-.02c6.61-16.55,12.39-23.9,14.55-26.28.02-.03.03-.05.05-.07.12-.13.23-.25.33-.35.18-.18.35-.35.51-.51l.02-.02c3.09-3.06,6.57-5.81,10.47-8.23,4.18-2.61,8.82-4.87,13.92-6.76,9.86-3.63,20.71-5.45,32.59-5.45,16.12,0,28.87,2.81,38.26,8.44,9.38,5.63,14.88,12.65,16.53,21.06,1.64,8.41.71,21.49-2.78,39.25Z"/>
    </g>
    <g>
      <path d="M308.34,174.19c-3.18-5.98-3.61-14.43-1.28-25.37l7.81-36.76c2.4-11.28,6.42-19.84,12.07-25.69,5.65-5.85,13.86-8.78,24.63-8.78,10.09,0,16.71,2.54,19.87,7.63,3.15,5.09,3.72,12.42,1.68,22.01l-1.84,8.65h-18.06l1.89-8.9c.77-3.65,1.21-6.51,1.31-8.58.1-2.08-.41-3.77-1.52-5.09-1.12-1.31-3.16-1.97-6.13-1.97s-5.49.7-7.31,2.1c-1.82,1.4-3.22,3.26-4.18,5.59-.96,2.33-1.84,5.36-2.63,9.09l-9.49,44.64c-1.24,5.85-1.38,10.07-.4,12.66.98,2.58,3.46,3.87,7.45,3.87,2.88,0,5.17-.68,6.85-2.03,1.69-1.35,2.96-3.16,3.82-5.41.86-2.24,1.69-5.24,2.48-8.97l1.97-9.28h18.06l-1.76,8.27c-2.11,9.92-5.82,17.62-11.14,23.08-5.32,5.47-13.1,8.2-23.37,8.2s-17.61-2.99-20.8-8.97Z"/>
      <path d="M377.13,174.57c-3.36-5.72-3.87-14.1-1.53-25.12l8.22-38.66c2.33-10.94,6.37-19.2,12.14-24.8,5.77-5.6,13.99-8.4,24.68-8.4s17.59,2.8,20.98,8.4c3.39,5.6,3.92,13.86,1.6,24.8l-8.22,38.66c-2.33,10.94-6.41,19.29-12.26,25.06-5.85,5.77-14.03,8.65-24.54,8.65s-17.71-2.86-21.07-8.58ZM410.38,165.35c2-2.62,3.53-6.44,4.59-11.45l10.09-47.44c1.06-5.01,1.16-8.78.31-11.32-.86-2.54-3.41-3.82-7.65-3.82s-7.35,1.29-9.35,3.88c-1.99,2.59-3.51,6.34-4.55,11.26l-10.09,47.44c-1.06,5.01-1.15,8.82-.27,11.45.88,2.63,3.45,3.94,7.69,3.94s7.23-1.31,9.23-3.94Z"/>
      <path d="M465.42,78.74h19.46l-.54,71.35,30.3-71.35h18.95l-19.99,103.02h-13.99l13.69-71.61-29.85,71.61h-11.32l.39-71.86-16.67,71.86h-14.12l23.68-103.02Z"/>
      <path d="M550.76,78.74h30.27c17.55,0,24.25,9.75,20.11,29.25-3.96,18.65-15.15,27.98-33.55,27.98h-10.3l-9.73,45.79h-18.7l21.9-103.02ZM567.35,122.74c5.09,0,8.75-1.08,10.99-3.24,2.24-2.16,3.96-6.04,5.14-11.64.87-4.07,1.23-7.18,1.1-9.35-.13-2.16-.99-3.79-2.58-4.9-1.59-1.1-4.29-1.65-8.1-1.65h-7.25l-6.54,30.78h7.25Z"/>
      <path d="M627.83,78.74h20.09l-1.29,103.02h-17.42l.99-23.78h-17.93l-9.25,23.78h-17.68l42.5-103.02ZM630.7,146.02l2.2-43.24-16.19,43.24h13.99Z"/>
      <path d="M678.83,78.74h13.1l12.57,58.76,12.49-58.76h15.52l-21.9,103.02h-12.47l-12.1-61.56-13.08,61.56h-16.03l21.9-103.02Z"/>
      <path d="M748.97,142.46l-7.31-63.72h17.55l4.04,40.83,20.63-40.83h17.17l-34.15,63.72-8.35,39.3h-17.93l8.35-39.3Z"/>
    </g>
  </g>
  <text class="cls-2" transform="translate(0 261.7)"><tspan x="0" y="0">100% Employee Owned</tspan></text>
</svg>
