<svg version="1.2" xmlns="http://www.w3.org/2000/svg" viewBox="0 0 1569 613" width="200" height="78">
	<title>NCCER_logo_stacked_negative_reversed_CMYK-ai</title>
	<style>
		.s0 { fill: #f1693f } 
		.s1 { fill: #fefefe } 
	</style>
	<g id="Layer 1">
		<path id="&lt;Path&gt;" class="s0" d="m94.7 185.4v191.3h-93.9v-375.9h84.5l139.3 205.6v-205.6h94v375.9h-94z"/>
		<path id="&lt;Path&gt;" class="s0" d="m633.9 362c-23 9.6-49.3 15-76.6 15-106.5 0-187.4-81.4-187.4-188 0-106.5 80.9-187.9 187.4-187.9 27.3 0 53.6 5.3 76.6 15v104.4c-17.7-16.6-44.5-28.4-76.6-28.4-53.5 0-93.7 43.9-93.7 96.9 0 53.6 40.2 96.9 93.7 96.9 32.1 0 60-11.7 76.6-27.3z"/>
		<path id="&lt;Path&gt;" class="s0" d="m923.1 362c-23.1 9.6-49.3 15-76.6 15-106.6 0-187.4-81.4-187.4-188 0-106.5 80.8-187.9 187.4-187.9 27.3 0 53.5 5.3 76.6 15v104.4c-17.7-16.6-44.5-28.4-76.6-28.4-53.6 0-93.7 43.9-93.7 96.9 0 53.6 40.1 96.9 93.7 96.9 32.1 0 60-11.7 76.6-27.3z"/>
		<path id="&lt;Path&gt;" class="s0" d="m974.8 0.8h221.1v91.1h-221.1z"/>
		<path id="&lt;Compound Path&gt;" fill-rule="evenodd" class="s0" d="m1457.8 377l-90.8-131.9c-5.2 0.2-10.5 0.2-15.6 0.2h-9.4v131.7h-93.6v-376.2h139.4c74.9 0 126.7 39.8 126.7 111.7 0 53.2-29.2 83.6-63.4 94.7l117.1 169.8zm-70.6-222.4c18.2 0 30.9-11.1 30.9-31.5 0-20.5-12.7-31.6-30.9-31.6h-45.1v63.1z"/>
		<path id="&lt;Path&gt;" class="s0" d="m974.8 143.2h221.1v91.1h-221.1z"/>
		<path id="&lt;Path&gt;" class="s0" d="m974.8 285.6h221.1v91.1h-221.1z"/>
		<g id="&lt;Group&gt;">
			<path id="&lt;Compound Path&gt;" class="s1" d="m415.2 493.1l-35-44.5v44.5h-10.4v-64.2h8.9l34.9 44.7v-44.7h10.5v64.2z"/>
			<path id="&lt;Compound Path&gt;" fill-rule="evenodd" class="s1" d="m436.8 454.8c3.5-2.1 9-3.9 14.4-3.9 12.1 0 16.3 6.2 16.3 17.1v25.1h-9.1v-4.7c-2.1 3.1-6.5 5.3-12 5.3-7.5 0-12.8-4.7-12.8-12.7 0-9.1 6.6-13.4 14.9-13.4 3.6 0 7.2 1.2 9.2 2.7 0.3-6.9-1.5-10.6-7.6-10.6-4.7 0-7.7 1.4-10.7 2.8zm21 26.2v-4.2c-1.9-1.4-4.2-2-7.2-2-3.5 0-6.5 1.6-6.5 5.1 0 3.1 2.5 4.9 5.8 4.9 4.3 0 6.6-2 7.9-3.8z"/>
			<path id="&lt;Compound Path&gt;" class="s1" d="m474.9 440.4h10.4v11.5h13.2v9.9h-13.2v15c0 4.5 1.5 7.4 4.9 7.4 2.8 0 4.8-1.3 6.3-2.4l3.1 8.2c-2.4 2-6.8 4-12 4-9.3 0-12.7-6-12.7-16.6z"/>
			<path id="&lt;Compound Path&gt;" class="s1" d="m513 430.9c3 0 6 2.3 6 6.1 0 4.2-3 6.6-6 6.6-3.6 0-6.5-2.4-6.5-6.6 0-3.8 2.9-6.1 6.5-6.1zm-5.5 21h10.5v41.2h-10.5z"/>
			<path id="&lt;Compound Path&gt;" fill-rule="evenodd" class="s1" d="m548.4 450.9c13.5 0 22.2 9.2 22.2 21.6 0 12.4-8.7 21.6-22.2 21.6-13.5 0-22.3-9.2-22.3-21.6 0-12.4 8.8-21.6 22.3-21.6zm0 33.4c6.4 0 11.1-4.7 11.1-11.8 0-7-4.8-11.7-11.1-11.7-6.2 0-11.1 4.5-11.1 11.7 0 6.9 4.7 11.8 11.1 11.8z"/>
			<path id="&lt;Compound Path&gt;" class="s1" d="m577.2 451.9h10.5v4.1c2.4-2.7 6.8-4.9 11.7-4.9 10 0 16.8 4.9 16.8 17.8v24.2h-10.5v-22.4c0-6.6-3.3-9.7-9.1-9.7-3.6 0-6.5 1.5-8.9 4v28.1h-10.5z"/>
			<path id="&lt;Compound Path&gt;" fill-rule="evenodd" class="s1" d="m624.9 454.8c3.5-2.1 9-3.9 14.4-3.9 12.1 0 16.3 6.2 16.3 17.1v25.1h-9v-4.7c-2.2 3.1-6.6 5.3-12.1 5.3-7.5 0-12.8-4.7-12.8-12.7 0-9.1 6.6-13.4 14.9-13.4 3.6 0 7.2 1.2 9.2 2.7 0.3-6.9-1.5-10.6-7.6-10.6-4.7 0-7.7 1.4-10.7 2.8zm21 26.2v-4.2c-1.9-1.4-4.2-2-7.2-2-3.5 0-6.5 1.6-6.5 5.1 0 3.1 2.5 4.9 5.8 4.9 4.3 0 6.6-2 7.9-3.8z"/>
			<path id="&lt;Compound Path&gt;" class="s1" d="m663.9 428.9h10.4v48.5c0 4.7 1.1 6.7 3.6 6.7 1.6 0 3-0.7 4.2-1.6l2.2 8.1c-2.4 1.9-5.9 3.4-10.8 3.4-6.2 0-9.6-3.8-9.6-12.3z"/>
			<path id="&lt;Compound Path&gt;" class="s1" d="m756.7 486.9c-4 4.3-12.1 7.2-20.3 7.2-19.4 0-32.8-13.1-32.8-33.1 0-18.4 11.6-33.1 32.5-33.1 8.3 0 15.2 2.7 19.3 6.5l-4.9 8.4c-3.9-2.6-8-4.3-14.4-4.3-11.8 0-20.7 8.6-20.7 22.5 0 13.4 9 22.6 22 22.6 5.3 0 10.7-1.8 15.1-5.2z"/>
			<path id="&lt;Compound Path&gt;" fill-rule="evenodd" class="s1" d="m794.7 489c-4 3.5-9.8 5.1-15.6 5.1-13.1 0-21.9-8.6-21.9-21.6 0-12 8.1-21.6 21.6-21.6 10.5 0 19.3 7.6 19.3 19.1 0 2.6-0.2 4.1-0.6 5.7h-29.5c0.9 6.2 5.8 9.6 12.2 9.6 5 0 9.2-1.8 11.6-3.7zm-27.2-20.4h20.1c0.1-5-3.4-9-9.4-9-6.2 0-9.6 3.6-10.7 9z"/>
			<path id="&lt;Compound Path&gt;" class="s1" d="m804.1 451.9h10.4v4.1c2.5-2.7 6.8-4.9 11.7-4.9 10 0 16.8 4.9 16.8 17.8v24.2h-10.4v-22.4c0-6.6-3.4-9.7-9.2-9.7-3.5 0-6.4 1.5-8.9 4v28.1h-10.4z"/>
			<path id="&lt;Compound Path&gt;" class="s1" d="m850.3 440.4h10.4v11.5h13.2v9.9h-13.2v15c0 4.5 1.5 7.4 4.9 7.4 2.8 0 4.8-1.3 6.3-2.4l3.2 8.2c-2.5 2-6.9 4-12.1 4-9.3 0-12.7-6-12.7-16.6z"/>
			<path id="&lt;Compound Path&gt;" fill-rule="evenodd" class="s1" d="m914.8 489c-4.1 3.5-9.9 5.1-15.6 5.1-13.2 0-22-8.6-22-21.6 0-12 8.2-21.6 21.6-21.6 10.6 0 19.4 7.6 19.4 19.1 0 2.6-0.2 4.1-0.7 5.7h-29.5c0.9 6.2 5.8 9.6 12.3 9.6 5 0 9.1-1.8 11.5-3.7zm-27.1-20.4h20c0.1-5-3.3-9-9.3-9-6.3 0-9.6 3.6-10.7 9z"/>
			<path id="&lt;Compound Path&gt;" class="s1" d="m924.1 451.9h10.5v4c1.9-2.7 4.4-4.8 9.3-4.8 3.4 0 5 0.6 6.4 1.6l-3.7 9.9c-2-1.2-3.1-1.6-5.3-1.6-3.6 0-5.5 2-6.7 4.4v27.7h-10.5z"/>
			<path id="&lt;Compound Path&gt;" class="s1" d="m971.1 445.2c0-11.5 5.4-17.3 14.5-17.3 4.9 0 9.3 1.7 11.4 3.9l-3.5 8c-1.4-1.3-3.7-2-6-2-3.6 0-6 2.5-6 8.2v5.9h11.1v9.9h-11.1v31.3h-10.4z"/>
			<path id="&lt;Compound Path&gt;" fill-rule="evenodd" class="s1" d="m1016.9 450.9c13.5 0 22.2 9.2 22.2 21.6 0 12.4-8.7 21.6-22.2 21.6-13.5 0-22.2-9.2-22.2-21.6 0-12.4 8.7-21.6 22.2-21.6zm0 33.4c6.4 0 11.1-4.7 11.1-11.8 0-7-4.8-11.7-11.1-11.7-6.2 0-11.1 4.5-11.1 11.7 0 6.9 4.7 11.8 11.1 11.8z"/>
			<path id="&lt;Compound Path&gt;" class="s1" d="m1045.7 451.9h10.5v4c1.9-2.7 4.4-4.8 9.3-4.8 3.4 0 5 0.6 6.4 1.6l-3.7 9.9c-2-1.2-3.1-1.6-5.3-1.6-3.6 0-5.5 2-6.7 4.4v27.7h-10.5z"/>
			<path id="&lt;Compound Path&gt;" class="s1" d="m1143.6 486.9c-4 4.3-12.1 7.2-20.4 7.2-19.4 0-32.7-13.1-32.7-33.1 0-18.4 11.5-33.1 32.5-33.1 8.2 0 15.1 2.7 19.3 6.5l-5 8.4c-3.8-2.6-8-4.3-14.3-4.3-11.8 0-20.7 8.6-20.7 22.5 0 13.4 9 22.6 21.9 22.6 5.4 0 10.7-1.8 15.1-5.2z"/>
			<path id="&lt;Compound Path&gt;" fill-rule="evenodd" class="s1" d="m1166.3 450.9c13.5 0 22.2 9.2 22.2 21.6 0 12.4-8.7 21.6-22.2 21.6-13.6 0-22.3-9.2-22.3-21.6 0-12.4 8.7-21.6 22.3-21.6zm0 33.4c6.4 0 11.1-4.7 11.1-11.8 0-7-4.8-11.7-11.1-11.7-6.2 0-11.1 4.5-11.1 11.7 0 6.9 4.7 11.8 11.1 11.8z"/>
			<path id="&lt;Compound Path&gt;" class="s1" d="m1195.1 451.9h10.4v4.1c2.5-2.7 6.9-4.9 11.8-4.9 9.9 0 16.7 4.9 16.7 17.8v24.2h-10.4v-22.4c0-6.6-3.4-9.7-9.2-9.7-3.5 0-6.4 1.5-8.9 4v28.1h-10.4z"/>
			<path id="&lt;Compound Path&gt;" class="s1" d="m1240.8 463.4c0-8.1 6.6-12.5 15-12.5 7.9 0 13 2.8 15.5 5.2l-3.9 7.5c-2.4-1.9-6.7-3.9-11-3.9-3.2 0-5.1 1.7-5.1 3.5 0 6.9 22 3.1 22 17.7 0 8.2-6.5 13.2-16.5 13.2-7.5 0-15.1-4.1-17-7l5-6.9c2.5 2.6 8.7 5.1 12.7 5.1 3 0 5.4-1.3 5.4-3.8 0-6.7-22.1-3.1-22.1-18.1z"/>
			<path id="&lt;Compound Path&gt;" class="s1" d="m1279.1 440.4h10.5v11.5h13.1v9.9h-13.1v15c0 4.5 1.4 7.4 4.9 7.4 2.8 0 4.8-1.3 6.2-2.4l3.2 8.2c-2.4 2-6.8 4-12.1 4-9.2 0-12.7-6-12.7-16.6z"/>
			<path id="&lt;Compound Path&gt;" class="s1" d="m1310.3 451.9h10.4v4c1.9-2.7 4.4-4.8 9.3-4.8 3.4 0 5 0.6 6.4 1.6l-3.7 9.9c-2-1.2-3.1-1.6-5.3-1.6-3.6 0-5.5 2-6.7 4.4v27.7h-10.4z"/>
			<path id="&lt;Compound Path&gt;" class="s1" d="m1376.9 493.1h-10.5v-5c-2.4 3-6.7 6-13 6-8 0-14.4-5.2-14.4-17v-25.2h10.5v23c0 5.5 2.1 9.4 7.8 9.4 3.4 0 6.8-1.9 9.1-5v-27.4h10.5z"/>
			<path id="&lt;Compound Path&gt;" class="s1" d="m1421.9 487c-3.5 4.7-9.6 7.1-16.3 7.1-13.2 0-22.1-8.6-22.1-21.6 0-12 8.7-21.6 21.1-21.6 6.8 0 12.7 1.7 16.5 5.5l-4.9 8.4c-3.1-3-6.5-4-10.2-4-5.8 0-11.3 4.4-11.3 11.7 0 7.3 5.6 11.8 11.8 11.8 4.4 0 7.8-2.1 10.5-5z"/>
			<path id="&lt;Compound Path&gt;" class="s1" d="m1426.9 440.4h10.4v11.5h13.2v9.9h-13.2v15c0 4.5 1.5 7.4 4.9 7.4 2.8 0 4.8-1.3 6.3-2.4l3.1 8.2c-2.4 2-6.8 4-12 4-9.3 0-12.7-6-12.7-16.6z"/>
			<path id="&lt;Compound Path&gt;" class="s1" d="m1465 430.9c3 0 6 2.3 6 6.1 0 4.2-3 6.6-6 6.6-3.6 0-6.5-2.4-6.5-6.6 0-3.8 2.9-6.1 6.5-6.1zm-5.5 21h10.5v41.2h-10.5z"/>
			<path id="&lt;Compound Path&gt;" fill-rule="evenodd" class="s1" d="m1500.4 450.9c13.5 0 22.2 9.2 22.2 21.6 0 12.4-8.7 21.6-22.2 21.6-13.5 0-22.3-9.2-22.3-21.6 0-12.4 8.8-21.6 22.3-21.6zm0 33.4c6.4 0 11.1-4.7 11.1-11.8 0-7-4.8-11.7-11.1-11.7-6.2 0-11.1 4.5-11.1 11.7 0 6.9 4.7 11.8 11.1 11.8z"/>
			<path id="&lt;Compound Path&gt;" class="s1" d="m1529.2 451.9h10.5v4.1c2.4-2.7 6.8-4.9 11.7-4.9 10 0 16.8 4.9 16.8 17.8v24.2h-10.5v-22.4c0-6.6-3.3-9.7-9.1-9.7-3.6 0-6.5 1.5-8.9 4v28.1h-10.5z"/>
		</g>
		<g id="&lt;Group&gt;">
			<path id="&lt;Compound Path&gt;" class="s1" d="m369.8 547.1h36.7v10.5h-25.5v15.9h22.8v10.6h-22.8v16.6h26.4v10.5h-37.6z"/>
			<path id="&lt;Compound Path&gt;" fill-rule="evenodd" class="s1" d="m444.9 606.9c-2.7 3-6.4 5.1-11.7 5.1-11.7 0-19.2-8.4-19.2-20.9 0-13.1 9.2-22.1 22.4-22.1 3.6 0 6.3 0.6 8.5 2v-23.9h10.5v64.1h-10.5zm0-9v-16.5c-2.6-1.7-5.2-2.5-8-2.5-6.2 0-11.8 4.2-11.8 11.8 0 7.3 4.8 11.5 10.3 11.5 3.8 0 7.2-1.9 9.5-4.3z"/>
			<path id="&lt;Compound Path&gt;" class="s1" d="m501.5 611.2h-10.5v-5c-2.4 3-6.7 6-13 6-8 0-14.4-5.2-14.4-17v-25.2h10.5v23c0 5.5 2 9.4 7.8 9.4 3.4 0 6.8-1.9 9.1-5v-27.4h10.5z"/>
			<path id="&lt;Compound Path&gt;" class="s1" d="m546.5 605.1c-3.5 4.7-9.6 7.1-16.3 7.1-13.2 0-22.1-8.6-22.1-21.6 0-12 8.7-21.6 21.1-21.6 6.7 0 12.6 1.7 16.5 5.6l-4.9 8.3c-3.1-3-6.5-4-10.2-4-5.8 0-11.4 4.5-11.4 11.7 0 7.3 5.7 11.8 11.8 11.8 4.5 0 7.9-2.1 10.6-5z"/>
			<path id="&lt;Compound Path&gt;" fill-rule="evenodd" class="s1" d="m552.9 572.9c3.6-2.1 9.1-3.9 14.4-3.9 12.1 0 16.4 6.2 16.4 17.1v25.1h-9.1v-4.7c-2.2 3.1-6.5 5.3-12.1 5.3-7.4 0-12.8-4.7-12.8-12.7 0-9 6.7-13.4 14.9-13.4 3.6 0 7.3 1.2 9.3 2.7 0.2-6.9-1.6-10.6-7.6-10.6-4.8 0-7.8 1.4-10.8 2.8zm21 26.2v-4.2c-1.8-1.4-4.2-2-7.2-2-3.4 0-6.5 1.6-6.5 5.1 0 3.1 2.5 4.9 5.8 4.9 4.4 0 6.6-1.9 7.9-3.8z"/>
			<path id="&lt;Compound Path&gt;" class="s1" d="m591 558.5h10.5v11.5h13.1v9.9h-13.1v15c0 4.5 1.4 7.4 4.9 7.4 2.8 0 4.8-1.2 6.2-2.3l3.2 8.1c-2.5 2-6.8 4-12.1 4-9.2 0-12.7-6-12.7-16.5z"/>
			<path id="&lt;Compound Path&gt;" class="s1" d="m629.1 549c3 0 6 2.4 6 6.1 0 4.2-3 6.6-6 6.6-3.5 0-6.5-2.4-6.5-6.6 0-3.7 3-6.1 6.5-6.1zm-5.4 21h10.4v41.2h-10.4z"/>
			<path id="&lt;Compound Path&gt;" fill-rule="evenodd" class="s1" d="m664.5 569c13.5 0 22.3 9.2 22.3 21.6 0 12.4-8.8 21.6-22.3 21.6-13.5 0-22.2-9.2-22.2-21.6 0-12.4 8.7-21.6 22.2-21.6zm0 33.4c6.5 0 11.2-4.6 11.2-11.8 0-7-4.8-11.7-11.2-11.7-6.1 0-11 4.5-11 11.7 0 6.9 4.7 11.8 11 11.8z"/>
			<path id="&lt;Compound Path&gt;" class="s1" d="m693.4 570h10.4v4.1c2.5-2.7 6.8-4.9 11.7-4.9 10 0 16.8 4.9 16.8 17.8v24.2h-10.4v-22.3c0-6.6-3.4-9.8-9.2-9.8-3.5 0-6.4 1.5-8.9 4v28.1h-10.4z"/>
			<path id="&lt;Compound Path&gt;" fill-rule="evenodd" class="s1" d="m757.8 572.9c3.6-2.1 9.1-3.9 14.4-3.9 12.1 0 16.4 6.2 16.4 17.1v25.1h-9.1v-4.7c-2.2 3.1-6.5 5.3-12.1 5.3-7.4 0-12.8-4.7-12.8-12.7 0-9 6.7-13.4 14.9-13.4 3.6 0 7.3 1.2 9.3 2.7 0.2-6.9-1.6-10.6-7.6-10.6-4.8 0-7.8 1.4-10.8 2.8zm21 26.2v-4.2c-1.8-1.4-4.2-2-7.2-2-3.4 0-6.5 1.6-6.5 5.1 0 3.1 2.5 4.9 5.8 4.9 4.4 0 6.6-1.9 7.9-3.8z"/>
			<path id="&lt;Compound Path&gt;" class="s1" d="m796.8 570h10.5v4.1c2.4-2.7 6.8-4.9 11.7-4.9 10 0 16.8 4.9 16.8 17.8v24.2h-10.5v-22.3c0-6.6-3.3-9.8-9.1-9.8-3.6 0-6.5 1.5-8.9 4v28.1h-10.5z"/>
			<path id="&lt;Compound Path&gt;" fill-rule="evenodd" class="s1" d="m872.3 606.9c-2.7 3-6.4 5.1-11.7 5.1-11.7 0-19.2-8.4-19.2-20.9 0-13.1 9.2-22.1 22.4-22.1 3.6 0 6.3 0.6 8.5 2v-23.9h10.5v64.1h-10.5zm0-9v-16.5c-2.6-1.7-5.2-2.5-8-2.5-6.2 0-11.8 4.2-11.8 11.8 0 7.3 4.8 11.5 10.3 11.5 3.8 0 7.2-1.9 9.5-4.3z"/>
			<path id="&lt;Compound Path&gt;" fill-rule="evenodd" class="s1" d="m911.7 611.2v-64.1c3.6 0 17.5-0.2 19.3-0.2 17.4 0 23.1 8.7 23.1 19.8 0 11-7 16.5-12.3 18.3l19.9 26.2h-13.5l-17.5-24h-7.8v24zm11.1-53.6v19.1h7.3c6.4 0 12.2-3.3 12.2-9.9 0-5.1-2.8-9.4-11.8-9.4-2.1 0-4.7 0.1-7.7 0.2z"/>
			<path id="&lt;Compound Path&gt;" fill-rule="evenodd" class="s1" d="m997.3 607.1c-4.1 3.5-9.9 5.1-15.6 5.1-13.2 0-22-8.6-22-21.6 0-12 8.2-21.6 21.6-21.6 10.5 0 19.3 7.6 19.3 19.1 0 2.6-0.1 4.2-0.6 5.7h-29.5c0.9 6.2 5.8 9.6 12.3 9.6 5 0 9.1-1.8 11.5-3.7zm-27.1-20.4h20c0.1-5-3.3-9-9.3-9-6.3 0-9.7 3.6-10.7 9z"/>
			<path id="&lt;Compound Path&gt;" class="s1" d="m1005.3 581.5c0-8 6.5-12.5 14.9-12.5 7.9 0 13 2.8 15.6 5.2l-3.9 7.5c-2.5-1.9-6.8-3.9-11.1-3.9-3.2 0-5.1 1.7-5.1 3.5 0 6.9 22.1 3.2 22.1 17.7 0 8.2-6.6 13.2-16.6 13.2-7.5 0-15.1-4.1-17-7l5.1-6.9c2.4 2.7 8.6 5.1 12.7 5.1 3 0 5.3-1.2 5.3-3.8 0-6.7-22-3-22-18.1z"/>
			<path id="&lt;Compound Path&gt;" fill-rule="evenodd" class="s1" d="m1079.5 607.1c-4.1 3.5-9.9 5.1-15.6 5.1-13.2 0-22-8.6-22-21.6 0-12 8.2-21.6 21.6-21.6 10.6 0 19.4 7.6 19.4 19.1 0 2.6-0.2 4.2-0.7 5.7h-29.5c0.9 6.2 5.8 9.6 12.3 9.6 5 0 9.1-1.8 11.5-3.7zm-27.1-20.4h20c0.1-5-3.3-9-9.3-9-6.3 0-9.6 3.6-10.7 9z"/>
			<path id="&lt;Compound Path&gt;" fill-rule="evenodd" class="s1" d="m1089.4 572.9c3.5-2.1 9.1-3.9 14.4-3.9 12.1 0 16.3 6.2 16.3 17.1v25.1h-9v-4.7c-2.2 3.1-6.6 5.3-12.1 5.3-7.4 0-12.8-4.7-12.8-12.7 0-9 6.6-13.4 14.9-13.4 3.6 0 7.3 1.2 9.2 2.7 0.3-6.9-1.5-10.6-7.6-10.6-4.7 0-7.7 1.4-10.7 2.8zm21 26.2v-4.2c-1.8-1.4-4.2-2-7.2-2-3.4 0-6.5 1.6-6.5 5.1 0 3.1 2.5 4.9 5.8 4.9 4.3 0 6.6-1.9 7.9-3.8z"/>
			<path id="&lt;Compound Path&gt;" class="s1" d="m1128.4 570h10.4v4c1.9-2.7 4.5-4.8 9.4-4.8 3.3 0 5 0.6 6.3 1.6l-3.7 9.9c-2-1.2-3.1-1.6-5.2-1.6-3.7 0-5.6 2.1-6.8 4.4v27.7h-10.4z"/>
			<path id="&lt;Compound Path&gt;" class="s1" d="m1193.9 605.1c-3.4 4.7-9.6 7.1-16.2 7.1-13.3 0-22.2-8.6-22.2-21.6 0-12 8.7-21.6 21.2-21.6 6.7 0 12.6 1.7 16.4 5.6l-4.9 8.3c-3.1-3-6.4-4-10.2-4-5.8 0-11.3 4.5-11.3 11.7 0 7.3 5.6 11.8 11.8 11.8 4.4 0 7.9-2.1 10.5-5z"/>
			<path id="&lt;Compound Path&gt;" class="s1" d="m1199.8 547.1h10.5v26.6c2.6-2.5 6.9-4.5 11.7-4.5 9.9 0 16.8 5.2 16.8 18.1v23.9h-10.5v-22.5c0-6.2-3.3-9.6-9.1-9.6-3.3 0-6.6 1.4-8.9 3.8v28.3h-10.5z"/>
		</g>
		<path id="&lt;Path&gt;" class="s1" d="m318.6 427.9h-14.7v184.3h14.7z"/>
	</g>
</svg>