<svg id="Layer_1" data-name="Layer 1" xmlns="http://www.w3.org/2000/svg" viewBox="0 0 462.58 163.2"><defs><style>.cls-1{fill:#0080aa;}</style></defs><path class="cls-1" d="M575,325.38v12.47h-7c-11.9,0-17.69-6.2-17.69-20.06V296c0-6.79-2.12-13.8-10.72-13.8s-11.33,7-11.33,13.8v41.85h-15V296c0-6.79-3-13.8-11.77-13.8s-11.62,7-11.62,13.8v41.85H474.88V295.55c0-16.56,10.63-26.76,26.46-26.76,8,0,14.69,2.86,19.33,7.83,4.65-5,11.26-7.83,19.28-7.83,14.63,0,25,9.41,25,26.76V318c0,5.12,2.34,7.38,6.68,7.38ZM458.59,327.2c-8.24,6.94-17.13,11.67-29.46,11.67-22.37,0-35.55-14.54-35.55-35.07,0-20.16,14.18-35.08,34.25-35.08,20.84,0,33.54,16.15,33.54,36.23,0,2.54-.22,5.05-.22,5.05H409.06c2,9.85,8,16,20.07,16,8.52,0,14.5-3.4,19.81-8.25Zm-49.58-29h37c-1.73-10.11-8.36-16.69-18.17-16.69-10.2,0-16.69,6.81-18.82,16.69m-47.06,19c0,14.58,6,20.62,18.37,20.62h6.76V325H383.9c-4.56,0-7.1-2.24-7.1-7.8v-84H362ZM320.31,325h-.5c-3.78,0-5.9-5.66-9.65-15.88l-6.22-17.2c-5.85-16-11.77-23.2-25.33-23.2-11.37,0-17.21,6.86-24.25,16.4L249.22,292,232.7,269.81H215l25.45,33.36L230.5,316.5c-5.08,6.84-8.23,8.88-12.57,8.88h-3v12.47h6.34c7.33,0,12.43-2.49,16.79-8.63L249,314l17.47,23.9h17.81l-26.5-35,6.63-8.76c6-8.05,8.86-11.87,13.94-11.87,5.39,0,8.06,5,12.62,16.6l7.56,19.36c4.35,11.3,8.61,19.66,16.3,19.66h1l-3.93,9.83c-3.05,7.7-5.94,12.46-13.95,12.46H294.4v12.69h5.09c11.89,0,20.38-5.87,25.91-21.24l29.38-81.77H338.89Z" transform="translate(-214.96 -233.27)"/><path class="cls-1" d="M366.24,391.88H379.9v3.81H362V365.07h4.28ZM402,386.65H385.72a6.56,6.56,0,0,0,6.66,6.23,7,7,0,0,0,6-3.12l2.86,2.29a10.58,10.58,0,0,1-8.83,4.2c-6.22,0-10.81-4.33-10.81-10.77s4.59-10.85,10.6-10.85,9.86,4.11,9.86,10.63C402,385.7,402,386.17,402,386.65Zm-4.07-3c-.09-3.24-2-5.79-5.75-5.79a6.35,6.35,0,0,0-6.45,5.79Zm19.37-5.1h-5.44V389.2c0,2.46.86,3.46,2.89,3.46a5.68,5.68,0,0,0,2.38-.52l.13,3.33a10.72,10.72,0,0,1-3.46.56c-3.85,0-6-2.16-6-6.4V378.52h-3.93v-3.33h3.93v-5.88h4v5.88h5.44Zm6.32-2.64h-3.42l3-10.81h4Zm14.66,4.5a5.6,5.6,0,0,0-4.76-2.55c-1.86,0-3.81.73-3.81,2.68,0,1.73,1.56,2.38,4.68,3.07,3.89.86,6.87,2.46,6.87,6.05,0,4.84-4,6.62-8.17,6.62a10.47,10.47,0,0,1-8.26-3.68l2.89-2.46a6.75,6.75,0,0,0,5.45,2.85c2,0,4.07-.73,4.07-3,0-1.91-1.86-2.6-5.36-3.42-2.73-.65-6-1.81-6-5.66,0-4.41,3.85-6.27,7.74-6.27,2.9,0,6,1.16,7.44,3.37Zm33.15-9.64a7.32,7.32,0,0,0-6-2.86c-2.77,0-6,1.52-6,5s2.81,4.23,6.27,5.36c4.11,1.29,9,2.85,9,8.95,0,6.35-5.15,9.29-10.6,9.29A12.85,12.85,0,0,1,454.08,392l3.33-2.81a8.33,8.33,0,0,0,6.83,3.59c2.85,0,6.14-1.6,6.14-5.23s-3.37-4.72-7.26-5.93-8-3-8-8.6c0-6.1,5.45-8.74,10.51-8.74a12,12,0,0,1,8.77,3.51Zm17.84,25.51a10.64,10.64,0,0,1-11-10.86c0-6.31,4.76-10.76,11-10.76s11.07,4.45,11.07,10.76A10.67,10.67,0,0,1,489.26,396.25Zm0-18.25c-4.37,0-6.83,3.5-6.83,7.39s2.46,7.44,6.83,7.44,6.83-3.54,6.83-7.44S493.67,378,489.26,378Zm19.11,17.69h-4.06V363h4.06v32.69Zm15.87,0h-4.41l-8.35-20.5H516l6,16.13h.09l6-16.13h4.33Zm29.92-9H537.9a6.56,6.56,0,0,0,6.66,6.23,7,7,0,0,0,6-3.12l2.85,2.29a10.54,10.54,0,0,1-8.82,4.2c-6.22,0-10.81-4.33-10.81-10.77s4.59-10.85,10.6-10.85,9.86,4.11,9.86,10.63A13.29,13.29,0,0,1,554.16,386.65Zm-4.06-3c-.09-3.24-2-5.79-5.75-5.79a6.36,6.36,0,0,0-6.45,5.79Zm25.63,5.84h.08L583,365.07h4.71l7.14,24.39h.08l6.75-24.39h4.54l-9,30.62h-4.46l-7.44-24.61h-.08l-7.44,24.61h-4.45l-9-30.62H569Zm43.6-7c0-3-2-4.5-5.06-4.5a8.45,8.45,0,0,0-5.84,2.38l-2.16-2.59a12.2,12.2,0,0,1,8.39-3.07c5.88,0,8.56,3.5,8.56,8v8.95a22.39,22.39,0,0,0,.3,4.07h-3.67a13.13,13.13,0,0,1-.35-2.94h-.13a7.86,7.86,0,0,1-6.88,3.46c-3.24,0-7.43-1.61-7.43-6.32,0-6.18,7.35-6.92,14.27-6.92Zm-1,3.5c-4,0-9.12.44-9.12,3.89,0,2.43,2.16,3.2,4.19,3.2,3.81,0,5.93-2.55,5.93-6v-1.08ZM639,378.52h-5.45V389.2c0,2.46.86,3.46,2.9,3.46a5.74,5.74,0,0,0,2.38-.52l.12,3.33a10.66,10.66,0,0,1-3.45.56c-3.85,0-6-2.16-6-6.4V378.52h-3.94v-3.33h3.94v-5.88h4v5.88H639Zm22.54,8.13H645.24a6.56,6.56,0,0,0,6.66,6.23,7,7,0,0,0,6-3.12l2.85,2.29a10.55,10.55,0,0,1-8.82,4.2c-6.22,0-10.81-4.33-10.81-10.77s4.59-10.85,10.6-10.85,9.85,4.11,9.85,10.63C661.54,385.7,661.54,386.17,661.5,386.65Zm-4.06-3c-.09-3.24-2-5.79-5.75-5.79a6.35,6.35,0,0,0-6.45,5.79Zm8.08-8.43h3.85c.09,1,.17,2.6.17,3.46h.13a6.93,6.93,0,0,1,6.27-4,6.24,6.24,0,0,1,1.6.17l-.17,3.76a8.13,8.13,0,0,0-1.86-.21c-3.89,0-5.75,3.15-5.75,6.57v10.77h-4.07V379.6C665.69,378.52,665.65,376.53,665.52,375.19Z" transform="translate(-214.96 -233.27)"/></svg>